# xmcd
#
# Track frame offsets: 
#        150
#        15381
#        31216
#        45571
#        60920
#        74934
#        91032
#        108426
#        125589
#        139961
#        154781
#        168426
#        192200
#        207289
#        224218
#        238726
#        250501
#        264444
#
# Disc length: 3725 seconds
#
# Revision: 2
# Processed by: cddbd v1.5.2PL0 Copyright (c) Steve Scherf et al.
# Submitted via: ExactAudioCopy v1.0b3
#
DISCID=010e8b12
DTITLE=Various Artist - Now That's What I Call Country, Vol. 6
DYEAR=2013
DGENRE=Country
TTITLE0=Luke Bryan - Kiss Tomorrow Goodbye
TTITLE1=Little Big Town - Pontoon
TTITLE2=Taylor Swift - We Are Never Ever Getting Back Together
TTITLE3=Carrie Underwood - Good Girl
TTITLE4=Jason Aldean - Take a Little Ride
TTITLE5=Kip Moore - Somethin' 'Bout a Truck
TTITLE6=Lady Antebellum - Dancin' Away with My Heart
TTITLE7=Hunter Hayes - Wanted
TTITLE8=The Band Perry - Better Dig Two
TTITLE9=Miranda Lambert - Fastest Girl in Town
TTITLE10=Dierks Bentley - 5-1-5-0
TTITLE11=Brad Paisley - Southern Comfort Zone
TTITLE12=Josh Turner - Time Is Love
TTITLE13=Gary Allan - Every Storm (Runs Out of Rain)
TTITLE14=Jake Owen - The One That Got Away
TTITLE15=Chris Young - I Can Take It from There
TTITLE16=Love and Theft - Angel Eyes
TTITLE17=Easton Corbin - Lovin' You Is Fun
EXTD=
EXTT0=
EXTT1=
EXTT2=
EXTT3=
EXTT4=
EXTT5=
EXTT6=
EXTT7=
EXTT8=
EXTT9=
EXTT10=
EXTT11=
EXTT12=
EXTT13=
EXTT14=
EXTT15=
EXTT16=
EXTT17=
PLAYORDER=
